<?xml version="1.0" encoding="utf-8"?>
<svg viewBox="0 0 512 512" xmlns="http://www.w3.org/2000/svg">
	<ellipse
		style="fill: rgb(35, 39, 46); stroke: rgb(35, 39, 46)"
		cx="247.768"
		cy="254.663"
		rx="225.768"
		ry="226.663"
		transform="matrix(1, 0, 0, 1, 5.684341886080802e-14, 0)"
	/>
	<g
		fill="#0dccd1"
		transform="matrix(7.824491977691651, 0, 0, 8.135870933532715, 16.0990886688233, 12.570853233337402)"
	>
		<path
			d="M35.3 45.7c.6 3.7-.5 8.7-2.6 9.2s-4.5-3.8-5.1-7.5c-.6-3.7.9-5.6 3.1-6c2.1-.5 4.1.6 4.6 4.3"
			style="fill: rgb(179, 147, 0)"
		/>
		<path
			d="M54.1 11.3c-3.8 0-6.8-4.3-7.3-2.3c-.5 2.3 3.5 6.7 6 6.7c0 0-8.6 6.2-46.7 6.2c-3.5 0-3.9 4.4-3.9 4.4c11 10.5 27.7 30.7 44.5 18.1c7.9-6 9.7-24.9 9.8-27.7c4.6-1.6 5.6-4.2 5.6-7.6c-.1-3.4-2.4 2.2-8 2.2"
			style="fill: rgb(216, 185, 43)"
		/>
	</g>
	<path
		d="M 33.31 227.361 C 33.31 227.361 30.179 254.208 33.31 276.173 C 43.487 340.449 91.995 425.876 228.143 425.876 C 312.651 425.876 329.864 414.486 367.422 386.01 C 372.893 381.937 377.59 377.871 381.504 373.805 C 262.569 407.161 172.589 313.595 172.589 239.558 C 172.589 226.547 80.261 222.473 33.31 227.361"
		style="fill: rgb(255, 237, 165)"
		transform="matrix(1, 0, 0, 1, 5.684341886080802e-14, 0)"
	/>
	<g
		fill="#fff"
		transform="matrix(7.824491977691651, 0, 0, 8.135870933532715, 16.0990886688233, 12.570853233337402)"
	>
		<path
			d="M45.1 45.5c-3.2 1.4-6.8 2.1-10.4 1.9c-3.6-.2-7.1-1.3-10.2-3.1c-3.1-1.8-5.8-4.4-7.6-7.5c-1.9-3.1-2.9-6.7-2.7-10.4l1.9.1c-.3 3.3.5 6.7 2.1 9.6c1.6 3 4 5.5 6.9 7.4c2.9 1.9 6.2 3.1 9.7 3.4c3.5.4 7.1-.1 10.3-1.4"
			style="fill: rgb(138, 73, 73)"
		/>
		<path
			d="M39 49.3c-3.6.3-7.2.2-10.7-.5c-3.5-.7-7-2-10-4.1c-3-2.1-5.5-4.8-7.2-8.1c-1.7-3.2-2.6-6.9-2.4-10.6l1.9.1c-.3 3.3.3 6.8 1.8 9.9c1.4 3.1 3.7 5.8 6.5 7.9c2.8 2.1 6.1 3.6 9.5 4.4c3.5 1 7.1 1.2 10.6 1"
			style="fill: rgb(138, 73, 73)"
		/>
		<path
			d="M28.7 50.8c-3.2-.4-6.4-1-9.4-2.1S13.4 46 11 43.8c-2.4-2.2-4.3-4.9-5.5-8c-1.2-3-1.8-6.3-1.8-9.5h1.9c-.1 3.1.2 6.1 1.2 9.1c1 2.9 2.6 5.6 4.9 7.8c2.2 2.2 4.9 3.9 7.8 5.2c2.9 1.1 6 1.9 9.2 2.4"
			style="fill: rgb(138, 73, 73)"
		/>
		<ellipse cx="29.3" cy="27" rx="2.2" ry="2.3" />
	</g>
	<path
		fill="#3e4347"
		d="M 257.09 232.242 C 257.09 239.558 251.618 245.254 245.356 245.254 C 239.094 245.254 233.622 239.558 233.622 232.242 C 233.622 224.917 239.094 219.222 245.356 219.222 C 251.618 218.407 257.09 224.103 257.09 232.242"
		transform="matrix(1, 0, 0, 1, 5.684341886080802e-14, 0)"
	/>
	<path
		d="M 224.229 245.254 C 225.012 245.254 256.315 268.034 266.483 240.373 C 271.963 225.732 224.229 245.254 224.229 245.254"
		style="fill: rgb(179, 147, 0)"
		transform="matrix(1, 0, 0, 1, 5.684341886080802e-14, 0)"
	/>
	<g
		fill="#3e4347"
		transform="matrix(7.824491977691651, 0, 0, 8.135870933532715, 16.0990886688233, 12.570853233337402)"
	>
		<path
			d="M29.3 28.5c.3.1.5.1.8.1c.3 0 .6.1.8.3c.5.4.6 1 .7 1.5c-.1-.3-.2-.5-.3-.7c-.1-.2-.3-.4-.5-.6c-.2-.1-.5-.2-.7-.3c-.2 0-.5-.1-.8-.3"
			style="fill: rgb(138, 73, 73)"
		/>
		<path
			d="M2.2 26.4c2.4-.4 4.8-.7 7.3-.7c2.5-.1 4.9.1 7.4.6c2.4.5 4.8 1.4 6.9 2.5c1.1.5 2.1 1.2 3.3 1.4c1.1.2 2.3-.3 3.4-.9c-.9.8-2.1 1.4-3.4 1.3c-1.3-.1-2.4-.7-3.5-1.2c-2.2-1-4.5-1.8-6.8-2.3c-2.3-.5-4.8-.7-7.2-.8c-2.5 0-5 0-7.4.1"
			style="fill: rgb(138, 73, 73)"
		/>
	</g>
	<path
		d="M 383.852 372.176 C 389.324 411.227 379.156 463.298 358.029 468.178 C 336.901 473.059 312.651 429.127 307.172 390.076 C 301.692 351.025 316.557 332.31 337.684 327.43 C 358.811 321.734 378.373 333.125 383.852 372.176"
		style="fill: rgb(179, 147, 0)"
		transform="matrix(1, 0, 0, 1, 5.684341886080802e-14, 0)"
	/>
</svg>
